# xmcd
#
# Track frame offsets: 
#        150
#        23040
#        41083
#        50720
#        78846
#        101226
#        128057
#        135257
#        161569
#        186524
#        204380
#        228509
#        243134
#        259081
#        280297
#
# Disc length: 3852 seconds
#
# Revision: 2
# Processed by: cddbd v1.5.2PL0 Copyright (c) Steve Scherf et al.
# Submitted via: ExactAudioCopy v1.0b6
#
DISCID=cd0f0a0f
DTITLE=Aardvarck - Cult Copy
DYEAR=2005
DGENRE=Electronic
TTITLE0=Start
TTITLE1=Cult Copy 1
TTITLE2=Coma
TTITLE3=Delsin King
TTITLE4=Cult Copy 2
TTITLE5=Buuv
TTITLE6=Caron Outro
TTITLE7=Theme Park
TTITLE8=Dear Tom
TTITLE9=Cult Copy 3 Dub?
TTITLE10=Cult Copy 3
TTITLE11=Aardbij
TTITLE12=Ooit
TTITLE13=Komt Goed
TTITLE14=Thuang-Zi
EXTD=
EXTT0=
EXTT1=
EXTT2=
EXTT3=
EXTT4=
EXTT5=
EXTT6=
EXTT7=
EXTT8=
EXTT9=
EXTT10=
EXTT11=
EXTT12=
EXTT13=
EXTT14=
PLAYORDER=
